<svg width="136" height="188" viewBox="0 0 136 188" fill="none" xmlns="http://www.w3.org/2000/svg">
<g id="Group 1256">
<rect id="Rectangle 291" x="133.137" y="67.0044" width="126.405" height="10.3543" transform="rotate(117.371 133.137 67.0044)" fill="#E0E0E0"/>
<rect id="Rectangle 290" x="43.8335" y="171.447" width="58.4432" height="15.6235" rx="3.09701" fill="#30235B"/>
<rect id="Rectangle 292" x="126.449" y="68.0189" width="67.8967" height="10.3543" transform="rotate(-139.766 126.449 68.0189)" fill="#E0E0E0"/>
<rect id="Rectangle 293" x="75.7192" y="19.6533" width="20.0325" height="3.56661" transform="rotate(162.128 75.7192 19.6533)" fill="#E0E0E0"/>
<circle id="Ellipse 187" cx="128.767" cy="63.8495" r="7.23339" fill="#30235B"/>
<path id="Polygon 1" d="M71.1957 14.4269L81.3295 16.3081L74.6334 24.1436L71.1957 14.4269Z" fill="#30235B"/>
<path id="Rectangle 294" d="M39.6338 11.0498C41.968 5.18671 48.6132 2.32593 54.4763 4.6601C60.3394 6.99426 63.2001 13.6395 60.866 19.5026L54.4118 35.7146L33.1796 27.2618L39.6338 11.0498Z" fill="#30235B"/>
<path id="Vector 46" d="M46.3661 27.5911C22.8025 18.3387 7.12542 39.0652 1.5898 50.0419C17.9505 73.3679 47.9206 75.7641 61.503 74.5896C66.2755 62.7786 69.9296 36.8435 46.3661 27.5911Z" fill="#30235B"/>
</g>
</svg>
