<svg width="227" height="59" viewBox="0 0 227 59" fill="none" xmlns="http://www.w3.org/2000/svg">
<path id="Vector 29" d="M1.41271 33.5849C7.41201 60.321 43.0385 60.3754 60.1019 57.0606L191.628 38.0584C193.323 39.5308 197.384 43.4135 200.061 47.1647C202.738 50.9159 205.192 48.2788 206.084 46.4914C209.939 50.6678 212.777 48.6804 213.714 47.1647C217.034 51.3442 219.827 49.8851 220.809 48.6331C225.413 52.0599 226.576 49.082 226.581 47.1647C220.299 33.8623 209.029 20.5291 204.18 15.5253L171.385 18.5276L64.8296 7.6639C44.6145 -6.51931 -6.08642 0.164729 1.41271 33.5849Z" fill="url(#paint0_linear_1_430)"/>
<defs>
<linearGradient id="paint0_linear_1_430" x1="113.622" y1="-35.3647" x2="113.622" y2="48.5014" gradientUnits="userSpaceOnUse">
<stop offset="0.0677966" stop-color="#FFEFE0"/>
<stop offset="1" stop-color="#FFBE99"/>
</linearGradient>
</defs>
</svg>
